<svg xmlns="http://www.w3.org/2000/svg" viewBox="0 0 200 200" fill="none">
  <defs>
    <linearGradient id="g1" x1="0%" y1="0%" x2="100%" y2="100%">
      <stop offset="0%" style="stop-color:#0d6e3e"/>
      <stop offset="100%" style="stop-color:#15954e"/>
    </linearGradient>
    <linearGradient id="g2" x1="0%" y1="0%" x2="100%" y2="100%">
      <stop offset="0%" style="stop-color:#d4782a"/>
      <stop offset="100%" style="stop-color:#e8a020"/>
    </linearGradient>
  </defs>
  <circle cx="100" cy="100" r="92" fill="url(#g1)" opacity=".08"/>
  <circle cx="100" cy="100" r="86" fill="url(#g1)" opacity=".06"/>
  <path d="M100 20c-44 0-80 36-80 80s36 80 80 80 80-36 80-80-36-80-80-80z" fill="url(#g1)" opacity=".12"/>
  <path d="M100 28c-40 0-72 32-72 72s32 72 72 72 72-32 72-72-32-72-72-72z" fill="url(#g1)"/>
  <path d="M100 42c-32 0-58 26-58 58s26 58 58 58 58-26 58-58-26-58-58-58z" fill="white" opacity=".95"/>
  <path d="M100 52l-30 48h60l-30-48z" fill="url(#g2)" opacity=".15"/>
  <path d="M88 72l-22 34h-.5c.5 4 2 8 5 11 4 4 10 7 18 9l.5.5.5-.5c8-2 14-5 18-9 3-3 4.5-7 5-11h-.5l-22-34-1.5-2-1.5 2zm-18 33c-2-2-3.5-5-4-8h3l10-17 4 6-13 19zm30 0l13-19 4-6 10 17h3c-.5 3-2 6-4 8l-16-12-10 12zm13-24l-9-15 14-8-5 23zm-54 0l-5-23 14 8-9 15z" fill="url(#g2)"/>
  <path d="M92 72l-8 12h32l-8-12-8-12-8 12z" fill="url(#g2)"/>
  <circle cx="84" cy="82" r="3" fill="url(#g1)"/>
  <circle cx="116" cy="82" r="3" fill="url(#g1)"/>
  <path d="M88 92c2 2 6 4 12 4s10-2 12-4" stroke="url(#g2)" stroke-width="2.5" fill="none" stroke-linecap="round"/>
  <g transform="translate(128, 128)">
    <circle cx="0" cy="0" r="24" fill="url(#g2)" opacity=".9"/>
    <path d="M-7-5l7 7 14-14" stroke="white" stroke-width="4" fill="none" stroke-linecap="round" stroke-linejoin="round"/>
  </g>
</svg>
